<?xml version="1.0" encoding="UTF-8" standalone="no"?><!-- Generator: Gravit.io --><svg xmlns="http://www.w3.org/2000/svg" xmlns:xlink="http://www.w3.org/1999/xlink" style="isolation:isolate" viewBox="-2760 -196 13490.865 3941.192" width="13490.865pt" height="3941.192pt"><defs><clipPath id="_clipPath_KkHkbT0J53Wdh4UdtXqXMkC7DotpDKa3"><rect x="-2760" y="-196" width="13490.865" height="3941.192"/></clipPath></defs><g clip-path="url(#_clipPath_KkHkbT0J53Wdh4UdtXqXMkC7DotpDKa3)"><g><g><path d=" M 9522.044 413.264 L 9546.589 334.968 Q 9295.464 259.86 9083.309 259.86 C 8173.999 259.86 7435.754 1040.722 7435.754 2002.526 C 7435.754 2964.33 8173.999 3745.192 9083.309 3745.192 C 9350.394 3745.192 9602.326 3677.824 9825.049 3558.236 C 9659.729 3611.868 9483.085 3640.877 9299.609 3640.877 C 9069.404 3654.046 8850.74 3620.404 8651.882 3548.081 C 8031.295 3322.381 7603.582 2719.966 7619.838 1987.923 C 7619.838 1263.131 8045.75 623.773 8705.936 400.991 C 8990.309 304.505 9266.681 317.023 9522.044 413.264 Z " fill="rgb(0, 158, 251)"/><path d=" M 8129.138 1548.451 Q 8192.034 1401.183 8356.176 1180.282 Q 8467.402 1264.767 8534.124 1309.141 Q 8600.846 1353.516 8687.528 1401.183 Q 8613.42 1570 8595.486 1646.629 Q 8577.551 1723.259 8552.533 1977.981 L 8043.232 1984.118 Q 8066.243 1695.719 8129.138 1548.451 L 8129.138 1548.451 L 8129.138 1548.451 L 8129.138 1548.451 L 8129.138 1548.451 L 8129.138 1548.451 L 8129.138 1548.451 L 8129.138 1548.451 L 8129.138 1548.451 L 8129.138 1548.451 L 8129.138 1548.451 L 8129.138 1548.451 L 8129.138 1548.451 L 8129.138 1548.451 L 8129.138 1548.451 L 8129.138 1548.451 Z  M 8687.528 1683.446 Q 8709.388 1594.472 8779.57 1438 Q 8926.972 1493.479 9018.88 1511.634 Q 9110.788 1529.789 9282.734 1542.315 L 9282.734 1977.981 L 8656.847 1984.118 Q 8665.668 1772.42 8687.528 1683.446 L 8687.528 1683.446 L 8687.528 1683.446 L 8687.528 1683.446 L 8687.528 1683.446 L 8687.528 1683.446 L 8687.528 1683.446 L 8687.528 1683.446 L 8687.528 1683.446 L 8687.528 1683.446 L 8687.528 1683.446 L 8687.528 1683.446 L 8687.528 1683.446 L 8687.528 1683.446 L 8687.528 1683.446 Z  M 10528.372 1548.451 Q 10465.477 1401.183 10301.335 1180.282 Q 10190.109 1264.767 10123.387 1309.141 Q 10056.665 1353.516 9969.983 1401.183 Q 10031.818 1576.136 10049.753 1652.766 Q 10067.687 1729.395 10098.842 1977.981 L 10614.278 1984.118 Q 10591.268 1695.719 10528.372 1548.451 L 10528.372 1548.451 L 10528.372 1548.451 L 10528.372 1548.451 L 10528.372 1548.451 L 10528.372 1548.451 L 10528.372 1548.451 L 10528.372 1548.451 L 10528.372 1548.451 L 10528.372 1548.451 L 10528.372 1548.451 L 10528.372 1548.451 L 10528.372 1548.451 L 10528.372 1548.451 Z  M 9969.983 1683.446 Q 9948.123 1594.472 9877.941 1438 Q 9730.539 1493.479 9638.631 1511.634 Q 9546.723 1529.789 9374.776 1542.315 L 9374.776 1977.981 L 10000.664 1984.118 Q 9991.843 1772.42 9969.983 1683.446 L 9969.983 1683.446 L 9969.983 1683.446 L 9969.983 1683.446 L 9969.983 1683.446 L 9969.983 1683.446 L 9969.983 1683.446 L 9969.983 1683.446 L 9969.983 1683.446 L 9969.983 1683.446 L 9969.983 1683.446 L 9969.983 1683.446 L 9969.983 1683.446 Z  M 8129.138 2511.826 Q 8192.034 2659.094 8356.176 2879.995 Q 8467.402 2795.511 8534.124 2751.136 Q 8600.846 2706.761 8687.528 2659.094 Q 8613.42 2490.277 8595.486 2413.648 Q 8577.551 2337.018 8552.533 2082.296 L 8043.232 2076.16 Q 8066.243 2364.559 8129.138 2511.826 L 8129.138 2511.826 L 8129.138 2511.826 L 8129.138 2511.826 L 8129.138 2511.826 L 8129.138 2511.826 L 8129.138 2511.826 L 8129.138 2511.826 L 8129.138 2511.826 L 8129.138 2511.826 L 8129.138 2511.826 L 8129.138 2511.826 Z  M 8687.528 2376.831 Q 8709.388 2465.805 8779.57 2622.277 Q 8926.972 2566.798 9018.88 2548.643 Q 9110.788 2530.488 9282.734 2517.962 L 9282.734 2082.296 L 8656.847 2076.16 Q 8665.668 2287.857 8687.528 2376.831 L 8687.528 2376.831 L 8687.528 2376.831 L 8687.528 2376.831 L 8687.528 2376.831 L 8687.528 2376.831 L 8687.528 2376.831 L 8687.528 2376.831 L 8687.528 2376.831 L 8687.528 2376.831 L 8687.528 2376.831 Z  M 10528.372 2511.826 Q 10465.477 2659.094 10301.335 2879.995 Q 10190.109 2795.511 10123.387 2751.136 Q 10056.665 2706.761 9963.847 2659.094 Q 10025.682 2502.55 10043.617 2425.92 Q 10061.551 2349.291 10104.978 2082.296 L 10614.278 2076.16 Q 10591.268 2364.559 10528.372 2511.826 L 10528.372 2511.826 L 10528.372 2511.826 L 10528.372 2511.826 L 10528.372 2511.826 L 10528.372 2511.826 L 10528.372 2511.826 L 10528.372 2511.826 L 10528.372 2511.826 L 10528.372 2511.826 Z  M 9969.983 2376.831 Q 9948.123 2465.805 9877.941 2622.277 Q 9730.539 2566.798 9638.631 2548.643 Q 9546.723 2530.488 9374.776 2517.962 L 9374.776 2082.296 L 10000.664 2076.16 Q 9991.843 2287.857 9969.983 2376.831 L 9969.983 2376.831 L 9969.983 2376.831 L 9969.983 2376.831 L 9969.983 2376.831 L 9969.983 2376.831 L 9969.983 2376.831 L 9969.983 2376.831 L 9969.983 2376.831 Z  M 9061.292 1419.592 Q 9138.114 1434.326 9282.734 1438 L 9282.734 787.569 Q 9079.474 969.352 9000.471 1075.968 Q 8901.035 1210.158 8828.659 1345.958 Q 8976.9 1403.406 9061.292 1419.592 L 9061.292 1419.592 L 9061.292 1419.592 L 9061.292 1419.592 L 9061.292 1419.592 L 9061.292 1419.592 L 9061.292 1419.592 L 9061.292 1419.592 Z  M 9596.219 1419.592 Q 9519.397 1434.326 9374.776 1438 L 9374.776 787.569 Q 9578.036 969.352 9657.039 1075.968 Q 9756.475 1210.158 9828.851 1345.958 Q 9680.611 1403.406 9596.219 1419.592 L 9596.219 1419.592 L 9596.219 1419.592 L 9596.219 1419.592 L 9596.219 1419.592 L 9596.219 1419.592 L 9596.219 1419.592 Z  M 9160.011 756.888 C 9120.868 793.476 8972.077 940.594 8914.565 1020.742 C 8857.054 1100.891 8744.287 1277.693 8730.481 1296.869 C 8731.631 1306.457 8631.731 1252.983 8626.166 1247.78 C 8620.602 1242.576 8480.354 1153.778 8435.946 1112.784 C 8430.082 1083.277 8633.528 937.017 8761.162 873.475 C 8892.553 808.062 9182.617 727.759 9160.011 756.888 L 9160.011 756.888 L 9160.011 756.888 L 9160.011 756.888 L 9160.011 756.888 L 9160.011 756.888 Z  M 9492.612 756.888 C 9531.756 793.476 9680.547 940.594 9738.058 1020.742 C 9795.57 1100.891 9908.336 1277.693 9922.143 1296.869 C 9920.992 1306.457 10020.893 1252.983 10026.457 1247.78 C 10032.021 1242.576 10172.269 1153.778 10216.678 1112.784 C 10222.542 1083.277 10019.096 937.017 9891.462 873.475 C 9760.07 808.062 9470.007 727.759 9492.612 756.888 L 9492.612 756.888 L 9492.612 756.888 L 9492.612 756.888 L 9492.612 756.888 Z  M 9061.292 2634.538 Q 9138.114 2619.804 9282.734 2616.129 L 9282.734 3266.561 Q 9079.474 3084.777 9000.471 2978.162 Q 8901.035 2843.971 8828.659 2708.171 Q 8976.9 2650.724 9061.292 2634.538 L 9061.292 2634.538 L 9061.292 2634.538 L 9061.292 2634.538 Z  M 9596.219 2634.538 Q 9519.397 2619.804 9374.776 2616.129 L 9374.776 3266.561 Q 9578.036 3084.777 9657.039 2978.162 Q 9756.475 2843.971 9828.851 2708.171 Q 9680.611 2650.724 9596.219 2634.538 L 9596.219 2634.538 L 9596.219 2634.538 Z  M 9160.011 3297.242 C 9120.868 3260.654 8972.077 3113.536 8914.565 3033.387 C 8857.054 2953.238 8744.287 2776.436 8730.481 2757.261 C 8731.631 2747.673 8631.731 2801.146 8626.166 2806.35 C 8620.602 2811.553 8480.354 2900.352 8435.946 2941.345 C 8430.082 2970.852 8633.528 3117.113 8761.162 3180.655 C 8892.553 3246.067 9182.617 3326.371 9160.011 3297.242 L 9160.011 3297.242 Z  M 7932.782 2024.002 C 7932.782 1260.317 8559.671 640.301 9331.823 640.301 C 10103.976 640.301 10730.865 1260.317 10730.865 2024.002 C 10730.865 2787.688 10103.976 3407.704 9331.823 3407.704 C 8559.671 3407.704 7932.782 2787.688 7932.782 2024.002 L 7932.782 2024.002 L 7932.782 2024.002 L 7932.782 2024.002 L 7932.782 2024.002 L 7932.782 2024.002 L 7932.782 2024.002 L 7932.782 2024.002 L 7932.782 2024.002 L 7932.782 2024.002 L 7932.782 2024.002 L 7932.782 2024.002 L 7932.782 2024.002 L 7932.782 2024.002 L 7932.782 2024.002 L 7932.782 2024.002 Z  M 9492.612 3297.242 C 9531.756 3260.654 9680.547 3113.536 9738.058 3033.387 C 9795.57 2953.238 9908.336 2776.436 9922.143 2757.261 C 9920.992 2747.673 10020.893 2801.146 10026.457 2806.35 C 10032.021 2811.553 10172.269 2900.352 10216.678 2941.345 C 10222.542 2970.852 10019.096 3117.113 9891.462 3180.655 C 9760.07 3246.067 9470.007 3326.371 9492.612 3297.242 Z " fill-rule="evenodd" fill="rgb(0, 158, 251)"/><path d=" M 9893.998 607.723 L 9624.606 920.46 C 9574.175 991.847 9632.481 1046.421 9701.527 999.723 C 9860.199 908.442 9996.228 807.87 10118.165 706.55 L 10325.239 787.763 C 10427.246 811.652 10488.198 798.275 10507.843 764.464 C 10501.438 707.827 10454.382 662.628 10375.498 619.28 L 10207.275 551.667 L 10109.916 98.91 C 10085.891 -17.122 10014.156 -35.284 10001.911 66.915 L 9961.35 456.853 L 9646.401 334.968 L 9566.247 181.888 L 9471.192 154.426 L 9511.455 363.321 L 9331.823 477.792 L 9448.246 527.271 L 9596.532 477.421 L 9893.998 607.723 Z " fill="rgb(0, 158, 251)"/></g></g><g><path d=" M 3035.535 3057.806 L 2425.478 3057.806 L 2425.478 1326.449 L 2103.266 1326.449 L 2103.266 798.018 L 2425.478 798.018 L 2425.478 798.018 Q 2408.294 198.055 2455.552 99.244 C 2531.67 -49.697 2844.031 -246.149 3314.786 -184.304 L 3555.372 -132.75 L 3508.113 331.237 C 3353.867 242.864 3197.028 243.551 3035.535 331.237 Q 3035.535 682.022 3035.535 798.018 L 3035.535 798.018 L 3473.744 798.018 L 3473.744 1326.449 L 3035.535 1326.449 L 3035.535 3057.806 Z  M 4522.009 3057.806 L 3911.954 3057.806 L 3911.954 29.004 L 4522.009 29.004 L 4522.009 3057.806 Z  M 5978.412 3745.192 L 5480.056 3745.192 L 5686.273 3057.806 L 5616.886 2851.609 L 4925.849 798.018 L 5488.648 798.018 L 5987.005 2224.348 L 6450.991 798.018 L 7005.196 798.018 L 5978.412 3745.192 Z " fill="rgb(0,158,251)"/><path d=" M -1767.585 2559.449 L -1767.585 2559.449 L -1767.585 2559.449 Q -1587.146 2559.449 -1488.333 2469.229 L -1488.333 2469.229 L -1488.333 2469.229 Q -1389.521 2379.01 -1389.521 2250.126 L -1389.521 2250.126 L -1389.521 1609.996 L -1389.521 1609.996 Q -1389.521 1476.814 -1488.333 1386.595 L -1488.333 1386.595 L -1488.333 1386.595 Q -1587.146 1296.375 -1767.585 1296.375 L -1767.585 1296.375 L -1767.585 1296.375 Q -1952.32 1296.375 -2051.132 1388.743 L -2051.132 1388.743 L -2051.132 1388.743 Q -2149.943 1481.11 -2149.943 1609.996 L -2149.943 1609.996 L -2149.943 2250.126 L -2149.943 2250.126 Q -2149.943 2379.01 -2051.132 2469.229 L -2051.132 2469.229 L -2051.132 2469.229 Q -1952.32 2559.449 -1767.585 2559.449 Z  M -1767.585 3109.359 L -1767.585 3109.359 L -1767.585 3109.359 Q -1943.728 3109.359 -2122.019 3066.398 L -2122.019 3066.398 L -2122.019 3066.398 Q -2300.31 3023.436 -2442.084 2922.476 L -2442.084 2922.476 L -2442.084 2922.476 Q -2583.857 2821.515 -2671.928 2658.262 L -2671.928 2658.262 L -2671.928 2658.262 Q -2760 2495.007 -2760 2271.606 L -2760 2271.606 L -2760 1579.922 L -2760 1579.922 Q -2760 1403.779 -2697.706 1251.265 L -2697.706 1251.265 L -2697.706 1251.265 Q -2635.411 1098.752 -2508.674 984.903 L -2508.674 984.903 L -2508.674 984.903 Q -2381.936 871.054 -2192.905 808.76 L -2192.905 808.76 L -2192.905 808.76 Q -2003.874 746.466 -1767.585 746.466 L -1767.585 746.466 L -1767.585 746.466 Q -1591.442 746.466 -1413.151 789.426 L -1413.151 789.426 L -1413.151 789.426 Q -1234.86 832.388 -1095.233 933.349 L -1095.233 933.349 L -1095.233 933.349 Q -955.608 1034.309 -867.536 1197.562 L -867.536 1197.562 L -867.536 1197.562 Q -779.465 1360.817 -779.465 1579.922 L -779.465 1579.922 L -779.465 2271.606 L -779.465 2271.606 Q -779.465 2400.491 -815.983 2522.931 L -815.983 2522.931 L -815.983 2522.931 Q -852.5 2645.372 -921.238 2746.333 L -921.238 2746.333 L -921.238 2746.333 Q -989.978 2847.293 -1095.233 2922.476 L -1095.233 2922.476 L -1095.233 2922.476 Q -1200.49 2997.658 -1365.893 3053.508 L -1365.893 3053.508 L -1365.893 3053.508 Q -1531.295 3109.359 -1767.585 3109.359 Z  M 393.389 3057.806 L -216.667 3057.806 L -216.667 798.018 L 298.874 798.018 L 298.874 1008.531 L 298.874 1008.531 Q 578.126 746.466 956.188 746.466 L 956.188 746.466 L 956.188 746.466 Q 1325.658 746.466 1534.023 980.607 L 1534.023 980.607 L 1534.023 980.607 Q 1742.388 1214.748 1742.388 1627.18 L 1742.388 1627.18 L 1742.388 3057.806 L 1132.331 3057.806 L 1132.331 1661.549 L 1132.331 1661.549 Q 1132.331 1485.406 1044.26 1390.891 L 1044.26 1390.891 L 1044.26 1390.891 Q 956.188 1296.375 818.711 1296.375 L 818.711 1296.375 L 818.711 1296.375 Q 715.602 1296.375 597.458 1354.373 L 597.458 1354.373 L 597.458 1354.373 Q 479.313 1412.371 393.389 1511.184 L 393.389 1511.184 L 393.389 3057.806 Z " fill="rgb(0, 158, 251)"/></g></g></svg>
